<svg width="24" height="24" viewBox="0 0 24 24" xmlns="http://www.w3.org/2000/svg">
<path d="M14.25 1.5H13.5V2.25H14.25V1.5Z" fill="#38342A"/>
<path d="M15 1.5H14.25V2.25H15V1.5Z" fill="#38342A"/>
<path d="M14.25 2.25H13.5V3H14.25V2.25Z" fill="#38342A"/>
<path d="M15 2.25H14.25V3H15V2.25Z" fill="#38342A"/>
<path d="M12.75 3H12V3.75H12.75V3Z" fill="#38342A"/>
<path d="M13.5 3H12.75V3.75H13.5V3Z" fill="#38342A"/>
<path d="M14.25 3H13.5V3.75H14.25V3Z" fill="#DBD0B4"/>
<path d="M15 3H14.25V3.75H15V3Z" fill="#DBD0B4"/>
<path d="M15.75 3H15V3.75H15.75V3Z" fill="#38342A"/>
<path d="M16.5 3H15.75V3.75H16.5V3Z" fill="#38342A"/>
<path d="M12.75 3.75H12V4.5H12.75V3.75Z" fill="#38342A"/>
<path d="M13.5 3.75H12.75V4.5H13.5V3.75Z" fill="#38342A"/>
<path d="M14.25 3.75H13.5V4.5H14.25V3.75Z" fill="#DBD0B4"/>
<path d="M15 3.75H14.25V4.5H15V3.75Z" fill="#DBD0B4"/>
<path d="M15.75 3.75H15V4.5H15.75V3.75Z" fill="#38342A"/>
<path d="M16.5 3.75H15.75V4.5H16.5V3.75Z" fill="#38342A"/>
<path d="M12.75 4.5H12V5.25H12.75V4.5Z" fill="#38342A"/>
<path d="M13.5 4.5H12.75V5.25H13.5V4.5Z" fill="#38342A"/>
<path d="M14.25 4.5H13.5V5.25H14.25V4.5Z" fill="#C6BCA5"/>
<path d="M15 4.5H14.25V5.25H15V4.5Z" fill="#C6BCA5"/>
<path d="M15.75 4.5H15V5.25H15.75V4.5Z" fill="#DBD0B4"/>
<path d="M16.5 4.5H15.75V5.25H16.5V4.5Z" fill="#DBD0B4"/>
<path d="M17.25 4.5H16.5V5.25H17.25V4.5Z" fill="#38342A"/>
<path d="M18 4.5H17.25V5.25H18V4.5Z" fill="#38342A"/>
<path d="M12.75 5.25H12V6H12.75V5.25Z" fill="#38342A"/>
<path d="M13.5 5.25H12.75V6H13.5V5.25Z" fill="#38342A"/>
<path d="M14.25 5.25H13.5V6H14.25V5.25Z" fill="#C6BCA5"/>
<path d="M15 5.25H14.25V6H15V5.25Z" fill="#C6BCA5"/>
<path d="M15.75 5.25H15V6H15.75V5.25Z" fill="#DBD0B4"/>
<path d="M16.5 5.25H15.75V6H16.5V5.25Z" fill="#DBD0B4"/>
<path d="M17.25 5.25H16.5V6H17.25V5.25Z" fill="#38342A"/>
<path d="M18 5.25H17.25V6H18V5.25Z" fill="#38342A"/>
<path d="M11.25 6H10.5V6.75H11.25V6Z" fill="#38342A"/>
<path d="M12 6H11.25V6.75H12V6Z" fill="#38342A"/>
<path d="M12.75 6H12V6.75H12.75V6Z" fill="#DBD0B4"/>
<path d="M13.5 6H12.75V6.75H13.5V6Z" fill="#DBD0B4"/>
<path d="M14.25 6H13.5V6.75H14.25V6Z" fill="#38342A"/>
<path d="M15 6H14.25V6.75H15V6Z" fill="#38342A"/>
<path d="M15.75 6H15V6.75H15.75V6Z" fill="#BCB29C"/>
<path d="M16.5 6H15.75V6.75H16.5V6Z" fill="#BCB29C"/>
<path d="M17.25 6H16.5V6.75H17.25V6Z" fill="#DBD0B4"/>
<path d="M18 6H17.25V6.75H18V6Z" fill="#DBD0B4"/>
<path d="M18.75 6H18V6.75H18.75V6Z" fill="#38342A"/>
<path d="M19.5 6H18.75V6.75H19.5V6Z" fill="#38342A"/>
<path d="M11.25 6.75H10.5V7.5H11.25V6.75Z" fill="#38342A"/>
<path d="M12 6.75H11.25V7.5H12V6.75Z" fill="#38342A"/>
<path d="M12.75 6.75H12V7.5H12.75V6.75Z" fill="#DBD0B4"/>
<path d="M13.5 6.75H12.75V7.5H13.5V6.75Z" fill="#DBD0B4"/>
<path d="M14.25 6.75H13.5V7.5H14.25V6.75Z" fill="#38342A"/>
<path d="M15 6.75H14.25V7.5H15V6.75Z" fill="#38342A"/>
<path d="M15.75 6.75H15V7.5H15.75V6.75Z" fill="#BCB29C"/>
<path d="M16.5 6.75H15.75V7.5H16.5V6.75Z" fill="#BCB29C"/>
<path d="M17.25 6.75H16.5V7.5H17.25V6.75Z" fill="#DBD0B4"/>
<path d="M18 6.75H17.25V7.5H18V6.75Z" fill="#DBD0B4"/>
<path d="M18.75 6.75H18V7.5H18.75V6.75Z" fill="#38342A"/>
<path d="M19.5 6.75H18.75V7.5H19.5V6.75Z" fill="#38342A"/>
<path d="M9.75 7.5H9V8.25H9.75V7.5Z" fill="#38342A"/>
<path d="M10.5 7.5H9.75V8.25H10.5V7.5Z" fill="#38342A"/>
<path d="M11.25 7.5H10.5V8.25H11.25V7.5Z" fill="#C6BCA5"/>
<path d="M12 7.5H11.25V8.25H12V7.5Z" fill="#C6BCA5"/>
<path d="M12.75 7.5H12V8.25H12.75V7.5Z" fill="#DBD0B4"/>
<path d="M13.5 7.5H12.75V8.25H13.5V7.5Z" fill="#DBD0B4"/>
<path d="M14.25 7.5H13.5V8.25H14.25V7.5Z" fill="#DBD0B4"/>
<path d="M15 7.5H14.25V8.25H15V7.5Z" fill="#DBD0B4"/>
<path d="M15.75 7.5H15V8.25H15.75V7.5Z" fill="#38342A"/>
<path d="M16.5 7.5H15.75V8.25H16.5V7.5Z" fill="#38342A"/>
<path d="M17.25 7.5H16.5V8.25H17.25V7.5Z" fill="#BCB29C"/>
<path d="M18 7.5H17.25V8.25H18V7.5Z" fill="#BCB29C"/>
<path d="M18.75 7.5H18V8.25H18.75V7.5Z" fill="#DBD0B4"/>
<path d="M19.5 7.5H18.75V8.25H19.5V7.5Z" fill="#DBD0B4"/>
<path d="M20.25 7.5H19.5V8.25H20.25V7.5Z" fill="#38342A"/>
<path d="M21 7.5H20.25V8.25H21V7.5Z" fill="#38342A"/>
<path d="M9.75 8.25H9V9H9.75V8.25Z" fill="#38342A"/>
<path d="M10.5 8.25H9.75V9H10.5V8.25Z" fill="#38342A"/>
<path d="M11.25 8.25H10.5V9H11.25V8.25Z" fill="#C6BCA5"/>
<path d="M12 8.25H11.25V9H12V8.25Z" fill="#C6BCA5"/>
<path d="M12.75 8.25H12V9H12.75V8.25Z" fill="#DBD0B4"/>
<path d="M13.5 8.25H12.75V9H13.5V8.25Z" fill="#DBD0B4"/>
<path d="M14.25 8.25H13.5V9H14.25V8.25Z" fill="#DBD0B4"/>
<path d="M15 8.25H14.25V9H15V8.25Z" fill="#DBD0B4"/>
<path d="M15.75 8.25H15V9H15.75V8.25Z" fill="#38342A"/>
<path d="M16.5 8.25H15.75V9H16.5V8.25Z" fill="#38342A"/>
<path d="M17.25 8.25H16.5V9H17.25V8.25Z" fill="#BCB29C"/>
<path d="M18 8.25H17.25V9H18V8.25Z" fill="#BCB29C"/>
<path d="M18.75 8.25H18V9H18.75V8.25Z" fill="#DBD0B4"/>
<path d="M19.5 8.25H18.75V9H19.5V8.25Z" fill="#DBD0B4"/>
<path d="M20.25 8.25H19.5V9H20.25V8.25Z" fill="#38342A"/>
<path d="M21 8.25H20.25V9H21V8.25Z" fill="#38342A"/>
<path d="M8.25 9H7.5V9.75H8.25V9Z" fill="#38342A"/>
<path d="M9 9H8.25V9.75H9V9Z" fill="#38342A"/>
<path d="M9.75 9H9V9.75H9.75V9Z" fill="#DBD0B4"/>
<path d="M10.5 9H9.75V9.75H10.5V9Z" fill="#DBD0B4"/>
<path d="M11.25 9H10.5V9.75H11.25V9Z" fill="#DBD0B4"/>
<path d="M12 9H11.25V9.75H12V9Z" fill="#DBD0B4"/>
<path d="M12.75 9H12V9.75H12.75V9Z" fill="#C6BCA5"/>
<path d="M13.5 9H12.75V9.75H13.5V9Z" fill="#C6BCA5"/>
<path d="M14.25 9H13.5V9.75H14.25V9Z" fill="#DBD0B4"/>
<path d="M15 9H14.25V9.75H15V9Z" fill="#DBD0B4"/>
<path d="M15.75 9H15V9.75H15.75V9Z" fill="#DBD0B4"/>
<path d="M16.5 9H15.75V9.75H16.5V9Z" fill="#DBD0B4"/>
<path d="M17.25 9H16.5V9.75H17.25V9Z" fill="#38342A"/>
<path d="M18 9H17.25V9.75H18V9Z" fill="#38342A"/>
<path d="M18.75 9H18V9.75H18.75V9Z" fill="#BCB29C"/>
<path d="M19.5 9H18.75V9.75H19.5V9Z" fill="#BCB29C"/>
<path d="M20.25 9H19.5V9.75H20.25V9Z" fill="#38342A"/>
<path d="M21 9H20.25V9.75H21V9Z" fill="#38342A"/>
<path d="M21.75 9H21V9.75H21.75V9Z" fill="#38342A"/>
<path d="M22.5 9H21.75V9.75H22.5V9Z" fill="#38342A"/>
<path d="M8.25 9.75H7.5V10.5H8.25V9.75Z" fill="#38342A"/>
<path d="M9 9.75H8.25V10.5H9V9.75Z" fill="#38342A"/>
<path d="M9.75 9.75H9V10.5H9.75V9.75Z" fill="#DBD0B4"/>
<path d="M10.5 9.75H9.75V10.5H10.5V9.75Z" fill="#DBD0B4"/>
<path d="M11.25 9.75H10.5V10.5H11.25V9.75Z" fill="#DBD0B4"/>
<path d="M12 9.75H11.25V10.5H12V9.75Z" fill="#DBD0B4"/>
<path d="M12.75 9.75H12V10.5H12.75V9.75Z" fill="#C6BCA5"/>
<path d="M13.5 9.75H12.75V10.5H13.5V9.75Z" fill="#C6BCA5"/>
<path d="M14.25 9.75H13.5V10.5H14.25V9.75Z" fill="#DBD0B4"/>
<path d="M15 9.75H14.25V10.5H15V9.75Z" fill="#DBD0B4"/>
<path d="M15.75 9.75H15V10.5H15.75V9.75Z" fill="#DBD0B4"/>
<path d="M16.5 9.75H15.75V10.5H16.5V9.75Z" fill="#DBD0B4"/>
<path d="M17.25 9.75H16.5V10.5H17.25V9.75Z" fill="#38342A"/>
<path d="M18 9.75H17.25V10.5H18V9.75Z" fill="#38342A"/>
<path d="M18.75 9.75H18V10.5H18.75V9.75Z" fill="#BCB29C"/>
<path d="M19.5 9.75H18.75V10.5H19.5V9.75Z" fill="#BCB29C"/>
<path d="M20.25 9.75H19.5V10.5H20.25V9.75Z" fill="#38342A"/>
<path d="M21 9.75H20.25V10.5H21V9.75Z" fill="#38342A"/>
<path d="M21.75 9.75H21V10.5H21.75V9.75Z" fill="#38342A"/>
<path d="M22.5 9.75H21.75V10.5H22.5V9.75Z" fill="#38342A"/>
<path d="M6.75 10.5H6V11.25H6.75V10.5Z" fill="#38342A"/>
<path d="M7.5 10.5H6.75V11.25H7.5V10.5Z" fill="#38342A"/>
<path d="M8.25 10.5H7.5V11.25H8.25V10.5Z" fill="#DBD0B4"/>
<path d="M9 10.5H8.25V11.25H9V10.5Z" fill="#DBD0B4"/>
<path d="M9.75 10.5H9V11.25H9.75V10.5Z" fill="#DBD0B4"/>
<path d="M10.5 10.5H9.75V11.25H10.5V10.5Z" fill="#DBD0B4"/>
<path d="M11.25 10.5H10.5V11.25H11.25V10.5Z" fill="#DBD0B4"/>
<path d="M12 10.5H11.25V11.25H12V10.5Z" fill="#DBD0B4"/>
<path d="M12.75 10.5H12V11.25H12.75V10.5Z" fill="#DBD0B4"/>
<path d="M13.5 10.5H12.75V11.25H13.5V10.5Z" fill="#DBD0B4"/>
<path d="M14.25 10.5H13.5V11.25H14.25V10.5Z" fill="#C6BCA5"/>
<path d="M15 10.5H14.25V11.25H15V10.5Z" fill="#C6BCA5"/>
<path d="M15.75 10.5H15V11.25H15.75V10.5Z" fill="#C6BCA5"/>
<path d="M16.5 10.5H15.75V11.25H16.5V10.5Z" fill="#C6BCA5"/>
<path d="M17.25 10.5H16.5V11.25H17.25V10.5Z" fill="#BCB29C"/>
<path d="M18 10.5H17.25V11.25H18V10.5Z" fill="#BCB29C"/>
<path d="M18.75 10.5H18V11.25H18.75V10.5Z" fill="#38342A"/>
<path d="M19.5 10.5H18.75V11.25H19.5V10.5Z" fill="#38342A"/>
<path d="M20.25 10.5H19.5V11.25H20.25V10.5Z" fill="#807A6D"/>
<path d="M21 10.5H20.25V11.25H21V10.5Z" fill="#807A6D"/>
<path d="M21.75 10.5H21V11.25H21.75V10.5Z" fill="#38342A"/>
<path d="M22.5 10.5H21.75V11.25H22.5V10.5Z" fill="#38342A"/>
<path d="M6.75 11.25H6V12H6.75V11.25Z" fill="#38342A"/>
<path d="M7.5 11.25H6.75V12H7.5V11.25Z" fill="#38342A"/>
<path d="M8.25 11.25H7.5V12H8.25V11.25Z" fill="#DBD0B4"/>
<path d="M9 11.25H8.25V12H9V11.25Z" fill="#DBD0B4"/>
<path d="M9.75 11.25H9V12H9.75V11.25Z" fill="#DBD0B4"/>
<path d="M10.5 11.25H9.75V12H10.5V11.25Z" fill="#DBD0B4"/>
<path d="M11.25 11.25H10.5V12H11.25V11.25Z" fill="#DBD0B4"/>
<path d="M12 11.25H11.25V12H12V11.25Z" fill="#DBD0B4"/>
<path d="M12.75 11.25H12V12H12.75V11.25Z" fill="#DBD0B4"/>
<path d="M13.5 11.25H12.75V12H13.5V11.25Z" fill="#DBD0B4"/>
<path d="M14.25 11.25H13.5V12H14.25V11.25Z" fill="#C6BCA5"/>
<path d="M15 11.25H14.25V12H15V11.25Z" fill="#C6BCA5"/>
<path d="M15.75 11.25H15V12H15.75V11.25Z" fill="#C6BCA5"/>
<path d="M16.5 11.25H15.75V12H16.5V11.25Z" fill="#C6BCA5"/>
<path d="M17.25 11.25H16.5V12H17.25V11.25Z" fill="#BCB29C"/>
<path d="M18 11.25H17.25V12H18V11.25Z" fill="#BCB29C"/>
<path d="M18.75 11.25H18V12H18.75V11.25Z" fill="#38342A"/>
<path d="M19.5 11.25H18.75V12H19.5V11.25Z" fill="#38342A"/>
<path d="M20.25 11.25H19.5V12H20.25V11.25Z" fill="#807A6D"/>
<path d="M21 11.25H20.25V12H21V11.25Z" fill="#807A6D"/>
<path d="M21.75 11.25H21V12H21.75V11.25Z" fill="#38342A"/>
<path d="M22.5 11.25H21.75V12H22.5V11.25Z" fill="#38342A"/>
<path d="M5.25 12H4.5V12.75H5.25V12Z" fill="#38342A"/>
<path d="M6 12H5.25V12.75H6V12Z" fill="#38342A"/>
<path d="M6.75 12H6V12.75H6.75V12Z" fill="#DBD0B4"/>
<path d="M7.5 12H6.75V12.75H7.5V12Z" fill="#DBD0B4"/>
<path d="M8.25 12H7.5V12.75H8.25V12Z" fill="#DBD0B4"/>
<path d="M9 12H8.25V12.75H9V12Z" fill="#DBD0B4"/>
<path d="M9.75 12H9V12.75H9.75V12Z" fill="#C6BCA5"/>
<path d="M10.5 12H9.75V12.75H10.5V12Z" fill="#C6BCA5"/>
<path d="M11.25 12H10.5V12.75H11.25V12Z" fill="#DBD0B4"/>
<path d="M12 12H11.25V12.75H12V12Z" fill="#DBD0B4"/>
<path d="M12.75 12H12V12.75H12.75V12Z" fill="#DBD0B4"/>
<path d="M13.5 12H12.75V12.75H13.5V12Z" fill="#DBD0B4"/>
<path d="M14.25 12H13.5V12.75H14.25V12Z" fill="#DBD0B4"/>
<path d="M15 12H14.25V12.75H15V12Z" fill="#DBD0B4"/>
<path d="M15.75 12H15V12.75H15.75V12Z" fill="#BCB29C"/>
<path d="M16.5 12H15.75V12.75H16.5V12Z" fill="#BCB29C"/>
<path d="M17.25 12H16.5V12.75H17.25V12Z" fill="#BCB29C"/>
<path d="M18 12H17.25V12.75H18V12Z" fill="#BCB29C"/>
<path d="M18.75 12H18V12.75H18.75V12Z" fill="#38342A"/>
<path d="M19.5 12H18.75V12.75H19.5V12Z" fill="#38342A"/>
<path d="M20.25 12H19.5V12.75H20.25V12Z" fill="#38342A"/>
<path d="M21 12H20.25V12.75H21V12Z" fill="#38342A"/>
<path d="M5.25 12.75H4.5V13.5H5.25V12.75Z" fill="#38342A"/>
<path d="M6 12.75H5.25V13.5H6V12.75Z" fill="#38342A"/>
<path d="M6.75 12.75H6V13.5H6.75V12.75Z" fill="#DBD0B4"/>
<path d="M7.5 12.75H6.75V13.5H7.5V12.75Z" fill="#DBD0B4"/>
<path d="M8.25 12.75H7.5V13.5H8.25V12.75Z" fill="#DBD0B4"/>
<path d="M9 12.75H8.25V13.5H9V12.75Z" fill="#DBD0B4"/>
<path d="M9.75 12.75H9V13.5H9.75V12.75Z" fill="#C6BCA5"/>
<path d="M10.5 12.75H9.75V13.5H10.5V12.75Z" fill="#C6BCA5"/>
<path d="M11.25 12.75H10.5V13.5H11.25V12.75Z" fill="#DBD0B4"/>
<path d="M12 12.75H11.25V13.5H12V12.75Z" fill="#DBD0B4"/>
<path d="M12.75 12.75H12V13.5H12.75V12.75Z" fill="#DBD0B4"/>
<path d="M13.5 12.75H12.75V13.5H13.5V12.75Z" fill="#DBD0B4"/>
<path d="M14.25 12.75H13.5V13.5H14.25V12.75Z" fill="#DBD0B4"/>
<path d="M15 12.75H14.25V13.5H15V12.75Z" fill="#DBD0B4"/>
<path d="M15.75 12.75H15V13.5H15.75V12.75Z" fill="#BCB29C"/>
<path d="M16.5 12.75H15.75V13.5H16.5V12.75Z" fill="#BCB29C"/>
<path d="M17.25 12.75H16.5V13.5H17.25V12.75Z" fill="#BCB29C"/>
<path d="M18 12.75H17.25V13.5H18V12.75Z" fill="#BCB29C"/>
<path d="M18.75 12.75H18V13.5H18.75V12.75Z" fill="#38342A"/>
<path d="M19.5 12.75H18.75V13.5H19.5V12.75Z" fill="#38342A"/>
<path d="M20.25 12.75H19.5V13.5H20.25V12.75Z" fill="#38342A"/>
<path d="M21 12.75H20.25V13.5H21V12.75Z" fill="#38342A"/>
<path d="M3.75 13.5H3V14.25H3.75V13.5Z" fill="#38342A"/>
<path d="M4.5 13.5H3.75V14.25H4.5V13.5Z" fill="#38342A"/>
<path d="M5.25 13.5H4.5V14.25H5.25V13.5Z" fill="#AEA694"/>
<path d="M6 13.5H5.25V14.25H6V13.5Z" fill="#AEA694"/>
<path d="M6.75 13.5H6V14.25H6.75V13.5Z" fill="#DBD0B4"/>
<path d="M7.5 13.5H6.75V14.25H7.5V13.5Z" fill="#DBD0B4"/>
<path d="M8.25 13.5H7.5V14.25H8.25V13.5Z" fill="#DBD0B4"/>
<path d="M9 13.5H8.25V14.25H9V13.5Z" fill="#DBD0B4"/>
<path d="M9.75 13.5H9V14.25H9.75V13.5Z" fill="#DBD0B4"/>
<path d="M10.5 13.5H9.75V14.25H10.5V13.5Z" fill="#DBD0B4"/>
<path d="M11.25 13.5H10.5V14.25H11.25V13.5Z" fill="#C6BCA5"/>
<path d="M12 13.5H11.25V14.25H12V13.5Z" fill="#C6BCA5"/>
<path d="M12.75 13.5H12V14.25H12.75V13.5Z" fill="#C6BCA5"/>
<path d="M13.5 13.5H12.75V14.25H13.5V13.5Z" fill="#C6BCA5"/>
<path d="M14.25 13.5H13.5V14.25H14.25V13.5Z" fill="#DBD0B4"/>
<path d="M15 13.5H14.25V14.25H15V13.5Z" fill="#DBD0B4"/>
<path d="M15.75 13.5H15V14.25H15.75V13.5Z" fill="#BCB29C"/>
<path d="M16.5 13.5H15.75V14.25H16.5V13.5Z" fill="#BCB29C"/>
<path d="M17.25 13.5H16.5V14.25H17.25V13.5Z" fill="#38342A"/>
<path d="M18 13.5H17.25V14.25H18V13.5Z" fill="#38342A"/>
<path d="M3.75 14.25H3V15H3.75V14.25Z" fill="#38342A"/>
<path d="M4.5 14.25H3.75V15H4.5V14.25Z" fill="#38342A"/>
<path d="M5.25 14.25H4.5V15H5.25V14.25Z" fill="#AEA694"/>
<path d="M6 14.25H5.25V15H6V14.25Z" fill="#AEA694"/>
<path d="M6.75 14.25H6V15H6.75V14.25Z" fill="#DBD0B4"/>
<path d="M7.5 14.25H6.75V15H7.5V14.25Z" fill="#DBD0B4"/>
<path d="M8.25 14.25H7.5V15H8.25V14.25Z" fill="#DBD0B4"/>
<path d="M9 14.25H8.25V15H9V14.25Z" fill="#DBD0B4"/>
<path d="M9.75 14.25H9V15H9.75V14.25Z" fill="#DBD0B4"/>
<path d="M10.5 14.25H9.75V15H10.5V14.25Z" fill="#DBD0B4"/>
<path d="M11.25 14.25H10.5V15H11.25V14.25Z" fill="#C6BCA5"/>
<path d="M12 14.25H11.25V15H12V14.25Z" fill="#C6BCA5"/>
<path d="M12.75 14.25H12V15H12.75V14.25Z" fill="#C6BCA5"/>
<path d="M13.5 14.25H12.75V15H13.5V14.25Z" fill="#C6BCA5"/>
<path d="M14.25 14.25H13.5V15H14.25V14.25Z" fill="#DBD0B4"/>
<path d="M15 14.25H14.25V15H15V14.25Z" fill="#DBD0B4"/>
<path d="M15.75 14.25H15V15H15.75V14.25Z" fill="#BCB29C"/>
<path d="M16.5 14.25H15.75V15H16.5V14.25Z" fill="#BCB29C"/>
<path d="M17.25 14.25H16.5V15H17.25V14.25Z" fill="#38342A"/>
<path d="M18 14.25H17.25V15H18V14.25Z" fill="#38342A"/>
<path d="M3.75 15H3V15.75H3.75V15Z" fill="#38342A"/>
<path d="M4.5 15H3.75V15.75H4.5V15Z" fill="#38342A"/>
<path d="M5.25 15H4.5V15.75H5.25V15Z" fill="#9A927E"/>
<path d="M6 15H5.25V15.75H6V15Z" fill="#9A927E"/>
<path d="M6.75 15H6V15.75H6.75V15Z" fill="#AEA694"/>
<path d="M7.5 15H6.75V15.75H7.5V15Z" fill="#AEA694"/>
<path d="M8.25 15H7.5V15.75H8.25V15Z" fill="#DBD0B4"/>
<path d="M9 15H8.25V15.75H9V15Z" fill="#DBD0B4"/>
<path d="M9.75 15H9V15.75H9.75V15Z" fill="#DBD0B4"/>
<path d="M10.5 15H9.75V15.75H10.5V15Z" fill="#DBD0B4"/>
<path d="M11.25 15H10.5V15.75H11.25V15Z" fill="#DBD0B4"/>
<path d="M12 15H11.25V15.75H12V15Z" fill="#DBD0B4"/>
<path d="M12.75 15H12V15.75H12.75V15Z" fill="#BCB29C"/>
<path d="M13.5 15H12.75V15.75H13.5V15Z" fill="#BCB29C"/>
<path d="M14.25 15H13.5V15.75H14.25V15Z" fill="#BCB29C"/>
<path d="M15 15H14.25V15.75H15V15Z" fill="#BCB29C"/>
<path d="M15.75 15H15V15.75H15.75V15Z" fill="#38342A"/>
<path d="M16.5 15H15.75V15.75H16.5V15Z" fill="#38342A"/>
<path d="M3.75 15.75H3V16.5H3.75V15.75Z" fill="#38342A"/>
<path d="M4.5 15.75H3.75V16.5H4.5V15.75Z" fill="#38342A"/>
<path d="M5.25 15.75H4.5V16.5H5.25V15.75Z" fill="#9A927E"/>
<path d="M6 15.75H5.25V16.5H6V15.75Z" fill="#9A927E"/>
<path d="M6.75 15.75H6V16.5H6.75V15.75Z" fill="#AEA694"/>
<path d="M7.5 15.75H6.75V16.5H7.5V15.75Z" fill="#AEA694"/>
<path d="M8.25 15.75H7.5V16.5H8.25V15.75Z" fill="#DBD0B4"/>
<path d="M9 15.75H8.25V16.5H9V15.75Z" fill="#DBD0B4"/>
<path d="M9.75 15.75H9V16.5H9.75V15.75Z" fill="#DBD0B4"/>
<path d="M10.5 15.75H9.75V16.5H10.5V15.75Z" fill="#DBD0B4"/>
<path d="M11.25 15.75H10.5V16.5H11.25V15.75Z" fill="#DBD0B4"/>
<path d="M12 15.75H11.25V16.5H12V15.75Z" fill="#DBD0B4"/>
<path d="M12.75 15.75H12V16.5H12.75V15.75Z" fill="#BCB29C"/>
<path d="M13.5 15.75H12.75V16.5H13.5V15.75Z" fill="#BCB29C"/>
<path d="M14.25 15.75H13.5V16.5H14.25V15.75Z" fill="#BCB29C"/>
<path d="M15 15.75H14.25V16.5H15V15.75Z" fill="#BCB29C"/>
<path d="M15.75 15.75H15V16.5H15.75V15.75Z" fill="#38342A"/>
<path d="M16.5 15.75H15.75V16.5H16.5V15.75Z" fill="#38342A"/>
<path d="M5.25 16.5H4.5V17.25H5.25V16.5Z" fill="#38342A"/>
<path d="M6 16.5H5.25V17.25H6V16.5Z" fill="#38342A"/>
<path d="M6.75 16.5H6V17.25H6.75V16.5Z" fill="#9A927E"/>
<path d="M7.5 16.5H6.75V17.25H7.5V16.5Z" fill="#9A927E"/>
<path d="M8.25 16.5H7.5V17.25H8.25V16.5Z" fill="#AEA694"/>
<path d="M9 16.5H8.25V17.25H9V16.5Z" fill="#AEA694"/>
<path d="M9.75 16.5H9V17.25H9.75V16.5Z" fill="#DBD0B4"/>
<path d="M10.5 16.5H9.75V17.25H10.5V16.5Z" fill="#DBD0B4"/>
<path d="M11.25 16.5H10.5V17.25H11.25V16.5Z" fill="#DBD0B4"/>
<path d="M12 16.5H11.25V17.25H12V16.5Z" fill="#DBD0B4"/>
<path d="M12.75 16.5H12V17.25H12.75V16.5Z" fill="#BCB29C"/>
<path d="M13.5 16.5H12.75V17.25H13.5V16.5Z" fill="#BCB29C"/>
<path d="M14.25 16.5H13.5V17.25H14.25V16.5Z" fill="#38342A"/>
<path d="M15 16.5H14.25V17.25H15V16.5Z" fill="#38342A"/>
<path d="M5.25 17.25H4.5V18H5.25V17.25Z" fill="#38342A"/>
<path d="M6 17.25H5.25V18H6V17.25Z" fill="#38342A"/>
<path d="M6.75 17.25H6V18H6.75V17.25Z" fill="#9A927E"/>
<path d="M7.5 17.25H6.75V18H7.5V17.25Z" fill="#9A927E"/>
<path d="M8.25 17.25H7.5V18H8.25V17.25Z" fill="#AEA694"/>
<path d="M9 17.25H8.25V18H9V17.25Z" fill="#AEA694"/>
<path d="M9.75 17.25H9V18H9.75V17.25Z" fill="#DBD0B4"/>
<path d="M10.5 17.25H9.75V18H10.5V17.25Z" fill="#DBD0B4"/>
<path d="M11.25 17.25H10.5V18H11.25V17.25Z" fill="#DBD0B4"/>
<path d="M12 17.25H11.25V18H12V17.25Z" fill="#DBD0B4"/>
<path d="M12.75 17.25H12V18H12.75V17.25Z" fill="#BCB29C"/>
<path d="M13.5 17.25H12.75V18H13.5V17.25Z" fill="#BCB29C"/>
<path d="M14.25 17.25H13.5V18H14.25V17.25Z" fill="#38342A"/>
<path d="M15 17.25H14.25V18H15V17.25Z" fill="#38342A"/>
<path d="M6.75 18H6V18.75H6.75V18Z" fill="#38342A"/>
<path d="M7.5 18H6.75V18.75H7.5V18Z" fill="#38342A"/>
<path d="M8.25 18H7.5V18.75H8.25V18Z" fill="#9A927E"/>
<path d="M9 18H8.25V18.75H9V18Z" fill="#9A927E"/>
<path d="M9.75 18H9V18.75H9.75V18Z" fill="#AEA694"/>
<path d="M10.5 18H9.75V18.75H10.5V18Z" fill="#AEA694"/>
<path d="M11.25 18H10.5V18.75H11.25V18Z" fill="#BCB29C"/>
<path d="M12 18H11.25V18.75H12V18Z" fill="#BCB29C"/>
<path d="M12.75 18H12V18.75H12.75V18Z" fill="#38342A"/>
<path d="M13.5 18H12.75V18.75H13.5V18Z" fill="#38342A"/>
<path d="M6.75 18.75H6V19.5H6.75V18.75Z" fill="#38342A"/>
<path d="M7.5 18.75H6.75V19.5H7.5V18.75Z" fill="#38342A"/>
<path d="M8.25 18.75H7.5V19.5H8.25V18.75Z" fill="#9A927E"/>
<path d="M9 18.75H8.25V19.5H9V18.75Z" fill="#9A927E"/>
<path d="M9.75 18.75H9V19.5H9.75V18.75Z" fill="#AEA694"/>
<path d="M10.5 18.75H9.75V19.5H10.5V18.75Z" fill="#AEA694"/>
<path d="M11.25 18.75H10.5V19.5H11.25V18.75Z" fill="#BCB29C"/>
<path d="M12 18.75H11.25V19.5H12V18.75Z" fill="#BCB29C"/>
<path d="M12.75 18.75H12V19.5H12.75V18.75Z" fill="#38342A"/>
<path d="M13.5 18.75H12.75V19.5H13.5V18.75Z" fill="#38342A"/>
<path d="M8.25 19.5H7.5V20.25H8.25V19.5Z" fill="#38342A"/>
<path d="M9 19.5H8.25V20.25H9V19.5Z" fill="#38342A"/>
<path d="M9.75 19.5H9V20.25H9.75V19.5Z" fill="#9A927E"/>
<path d="M10.5 19.5H9.75V20.25H10.5V19.5Z" fill="#9A927E"/>
<path d="M11.25 19.5H10.5V20.25H11.25V19.5Z" fill="#38342A"/>
<path d="M12 19.5H11.25V20.25H12V19.5Z" fill="#38342A"/>
<path d="M12.75 19.5H12V20.25H12.75V19.5Z" fill="#38342A"/>
<path d="M13.5 19.5H12.75V20.25H13.5V19.5Z" fill="#38342A"/>
<path d="M8.25 20.25H7.5V21H8.25V20.25Z" fill="#38342A"/>
<path d="M9 20.25H8.25V21H9V20.25Z" fill="#38342A"/>
<path d="M9.75 20.25H9V21H9.75V20.25Z" fill="#9A927E"/>
<path d="M10.5 20.25H9.75V21H10.5V20.25Z" fill="#9A927E"/>
<path d="M11.25 20.25H10.5V21H11.25V20.25Z" fill="#38342A"/>
<path d="M12 20.25H11.25V21H12V20.25Z" fill="#38342A"/>
<path d="M12.75 20.25H12V21H12.75V20.25Z" fill="#38342A"/>
<path d="M13.5 20.25H12.75V21H13.5V20.25Z" fill="#38342A"/>
<path d="M9.75 21H9V21.75H9.75V21Z" fill="#38342A"/>
<path d="M10.5 21H9.75V21.75H10.5V21Z" fill="#38342A"/>
<path d="M11.25 21H10.5V21.75H11.25V21Z" fill="#38342A"/>
<path d="M12 21H11.25V21.75H12V21Z" fill="#38342A"/>
<path d="M9.75 21.75H9V22.5H9.75V21.75Z" fill="#38342A"/>
<path d="M10.5 21.75H9.75V22.5H10.5V21.75Z" fill="#38342A"/>
<path d="M11.25 21.75H10.5V22.5H11.25V21.75Z" fill="#38342A"/>
<path d="M12 21.75H11.25V22.5H12V21.75Z" fill="#38342A"/>
</svg>
