<svg width="24" height="13" viewBox="0 0 24 13" xmlns="http://www.w3.org/2000/svg">
<g clip-path="url(#clip0_219_2754)">
<path d="M9.75771 1.89629C9.75771 2.93697 9.75235 3.78454 9.7443 3.77649C9.73625 3.76844 9.69334 3.54582 9.65311 3.28297C9.41439 1.81046 9.24542 0.783194 9.23201 0.71614L9.21591 0.643721H8.66875H8.12159L8.11891 2.39249C8.11891 3.42513 8.10818 4.11712 8.09477 4.07689C8.06527 3.99643 7.78096 2.2262 7.66562 1.42423C7.62003 1.10774 7.57979 0.844884 7.57443 0.839519C7.57175 0.834155 5.86321 0.834155 3.78453 0.836837L0 0.844884L0.257488 1.06214C2.4515 2.89137 4.19759 4.13053 5.36969 4.69647C6.14215 5.06661 6.84756 5.19804 8.41663 5.25704C9.39562 5.29459 9.67993 5.33751 9.99642 5.49844C10.5382 5.77202 10.9379 6.4211 10.9379 7.02727C10.9379 7.36791 10.7877 7.78632 10.5677 8.06527C10.2915 8.41395 9.6692 8.70631 8.88869 8.85919L8.59097 8.91551L7.96871 9.64775L7.34376 10.38V11.2517V12.1234H8.74654H10.1493L10.1895 11.2651C10.2137 10.793 10.2351 10.4041 10.2432 10.3988C10.2673 10.3773 12.574 8.74654 12.6062 8.72776C12.6249 8.71703 12.5123 8.83773 12.354 9.00134C11.8444 9.52168 11.2946 10.2512 10.8628 10.9835C10.7582 11.1605 10.5355 11.6433 10.5355 11.6942C10.5355 11.705 10.616 11.6621 10.7126 11.5977C11.8954 10.8038 14.4542 10.6294 16.1654 11.2249C16.4819 11.3348 16.7689 11.4716 16.9459 11.5977C17.139 11.7345 17.1363 11.7345 17.0934 11.6111C16.9996 11.3509 16.7823 10.954 16.4873 10.5141C16.0849 9.91864 15.755 9.49218 15.3554 9.06035L15.0416 8.71972L15.6504 9.15155C15.9884 9.38758 16.5248 9.76844 16.8467 9.99643L17.4287 10.4122V10.5221C17.4314 10.6053 17.5038 12.0724 17.5092 12.1153C17.5092 12.1207 18.0939 12.1234 18.81 12.1234H20.1109V11.2436L20.1082 10.3666L19.5047 9.62897L18.9012 8.89138L18.5874 8.84846C17.6567 8.71972 17.0747 8.50514 16.7421 8.16719C16.5436 7.96603 16.3102 7.51274 16.2217 7.16138C15.8382 5.6245 16.8413 3.84354 18.7403 2.69021C19.4993 2.2262 20.4971 1.81851 21.3768 1.60662C21.5217 1.57443 21.6343 1.54225 21.6316 1.53956C21.629 1.5342 20.1538 1.4591 18.354 1.36791C16.5543 1.27671 14.3147 1.16406 13.3786 1.1131L11.6755 1.02727L17.8391 1.02191L24 1.01922V0.509613V1.98558e-06H16.8789H9.75771V1.89629Z" fill="#E6E6E6"/>
</g>
<defs>
<clipPath id="clip0_219_2754">
<rect width="24" height="12.1234" fill="white"/>
</clipPath>
</defs>
</svg>
