<svg width="47" height="40" viewBox="0 0 47 40" fill="none" xmlns="http://www.w3.org/2000/svg">
<g clip-path="url(#clip0_796_2671)">
<path d="M20.1247 17.5823L30.6412 0H39.5643L31.1563 14.0916C29.6622 14.3547 28.2742 14.844 26.9922 15.5599C24.9656 16.6601 23.36 18.2004 22.1753 20.1807C21.0217 22.1297 20.4449 24.3772 20.4449 26.9234C20.4449 29.4381 21.0373 31.6857 22.222 33.666C22.7997 34.6163 23.4923 35.4692 24.2997 36.2252V39.6071H15.2084V25.4896L0 0H9.65254L20.1247 17.5823Z" fill="#0AF568"/>
<path d="M23.7858 35.7142C23.9518 35.8891 24.1232 36.0594 24.3001 36.2251V25.5835L31.1567 14.0915C32.0244 13.9388 32.9279 13.8623 33.8672 13.8623C36.3302 13.8623 38.5437 14.3967 40.5079 15.4654C42.5033 16.5028 44.0778 18.0116 45.2314 19.992C46.385 21.9409 46.9617 24.2827 46.9617 27.0175C46.9617 27.3004 46.9461 27.6305 46.9149 28.0077C46.8837 28.3535 46.8525 28.6835 46.8214 28.9979H27.785C27.932 29.6731 28.1665 30.3018 28.4891 30.8839C29.1126 31.9212 29.97 32.7228 31.0612 33.2886C32.1836 33.823 33.493 34.0902 34.9895 34.0902C36.3301 34.0902 37.4993 33.8859 38.497 33.4772C39.5258 33.0686 40.4612 32.4556 41.3029 31.6383L45.1845 35.882C44.031 37.2022 42.5812 38.2238 40.8353 38.9468C39.0893 39.6383 37.0785 39.9841 34.8025 39.9841C31.9342 39.9841 29.4088 39.4183 27.2264 38.2867C25.8942 37.5859 24.7474 36.7283 23.7858 35.7142ZM33.914 19.4262C32.6669 19.4262 31.5601 19.7091 30.5936 20.2749C29.6582 20.8093 28.9256 21.5794 28.3956 22.5853C28.0535 23.2141 27.8221 23.9213 27.7008 24.7071H40.0906C39.9723 23.908 39.7374 23.185 39.3856 22.5381C38.8556 21.5637 38.1228 20.8093 37.1876 20.2749C36.2523 19.7091 35.1611 19.4262 33.914 19.4262Z" fill="#EB7714"/>
</g>
<defs>
<clipPath id="clip0_796_2671">
<rect width="47" height="40" fill="white"/>
</clipPath>
</defs>
</svg>
